<?xml version="1.0" encoding="UTF-8"?>
<!-- Generated by Pixelmator Pro 3.6.4 -->
<svg width="500" height="500" viewBox="0 0 500 500" xmlns="http://www.w3.org/2000/svg">
    <path id="Percorso" fill="#000000" fill-rule="evenodd" stroke="none" d="M 462.449646 90.160553 C 462.449646 93.348724 465.036438 95.935547 468.22464 95.935547 C 471.412811 95.935547 473.999603 93.348724 473.999603 90.160553 L 473.999603 31.774963 C 473.999603 28.586823 471.412811 26 468.22464 26 L 409.83905 26 C 406.650879 26 404.064087 28.586823 404.064087 31.774963 C 404.064087 34.963165 406.650879 37.549957 409.83905 37.549957 L 454.283813 37.549957 L 398.691925 93.141876 C 396.436035 95.397766 396.436035 99.052185 398.691925 101.308075 C 400.947845 103.563965 404.602234 103.563965 406.858124 101.308075 L 462.450043 45.716187 Z"/>
    <path id="tommy-tegamino-stats" fill="#000000" fill-rule="evenodd" stroke="none" d="M 54.775391 444.253906 C 49.823452 444.253906 45.41851 443.517883 41.5625 442.046875 C 37.70649 440.575867 34.560356 438.400177 32.125 435.519531 C 29.689621 432.638855 28.107574 429.11496 27.376953 424.947266 L 40.041016 422.863281 C 40.852818 426.418182 42.505714 429.064209 45.001953 430.800781 C 47.498196 432.537354 50.757023 433.40625 54.775391 433.40625 C 59.0373 433.40625 62.424873 432.515747 64.941406 430.738281 C 67.457993 428.960846 68.716797 426.806824 68.716797 424.273438 C 68.716797 422.066956 67.91581 420.259308 66.3125 418.849609 C 64.70919 417.439911 62.344139 416.386047 59.21875 415.691406 L 47.894531 413.179688 C 41.643757 411.749573 36.975422 409.471558 33.890625 406.345703 C 30.80583 403.219849 29.263672 399.205933 29.263672 394.302734 C 29.263672 390.257599 30.369898 386.722931 32.582031 383.699219 C 34.794144 380.675537 37.849499 378.325684 41.746094 376.650391 C 45.642689 374.975098 50.127464 374.136719 55.201172 374.136719 C 60.112522 374.136719 64.342903 374.883575 67.894531 376.375 C 71.446167 377.866425 74.308891 379.959442 76.480469 382.65625 C 76.515709 382.700012 76.54911 382.745056 76.583984 382.789063 L 76.583984 375.117188 L 86.8125 375.117188 L 86.8125 386.027344 L 78.703125 386.027344 C 79.692352 387.883942 80.424805 389.905609 80.894531 392.095703 L 68.777344 394.179688 C 68.127899 391.605469 66.727448 389.377625 64.576172 387.498047 C 62.42495 385.618469 59.360592 384.679688 55.382813 384.679688 C 51.689167 384.679688 48.635761 385.516113 46.220703 387.191406 C 43.805645 388.866699 42.597656 391.011841 42.597656 393.626953 C 42.597656 395.874298 43.429558 397.692749 45.09375 399.082031 C 46.757942 400.471313 49.355431 401.575378 52.886719 402.392578 L 63.785156 404.84375 C 70.117119 406.273865 74.796356 408.501678 77.820313 411.525391 C 80.844276 414.549072 82.355469 418.44986 82.355469 423.230469 C 82.355469 427.3573 81.178444 431.005157 78.824219 434.171875 C 76.469994 437.338531 73.222115 439.810455 69.082031 441.587891 C 64.94194 443.365326 60.173824 444.253906 54.775391 444.253906 Z M 86.8125 386.027344 L 100.146484 386.027344 L 100.146484 424.580078 C 100.146484 427.236023 100.69313 429.176514 101.789063 430.402344 C 102.884987 431.628174 104.752266 432.240234 107.390625 432.240234 C 108.161835 432.240234 109.115433 432.168396 110.251953 432.025391 C 111.009132 431.930115 111.668205 431.842072 112.28125 431.755859 C 111.343185 429.361267 110.873047 426.642914 110.873047 423.599609 C 110.873047 419.75882 111.614166 416.600983 113.095703 414.128906 C 114.577248 411.65683 116.557205 409.705505 119.033203 408.275391 C 121.509193 406.845276 124.299156 405.762817 127.404297 405.027344 C 130.50943 404.29184 133.684448 403.740784 136.931641 403.373047 C 140.950058 402.882721 144.188843 402.473389 146.644531 402.146484 C 149.100235 401.81958 150.905685 401.309875 152.0625 400.615234 C 153.219315 399.920593 153.796875 398.775208 153.796875 397.181641 L 153.796875 396.814453 C 153.796875 394.32193 153.310089 392.207275 152.335938 390.470703 C 151.361771 388.734131 149.901428 387.39682 147.953125 386.457031 C 146.004791 385.517242 143.608871 385.046875 140.767578 385.046875 C 137.885681 385.046875 135.389984 385.506409 133.279297 386.425781 C 131.16861 387.345154 129.453949 388.529907 128.134766 389.980469 C 126.81559 391.43103 125.892906 392.972992 125.365234 394.607422 L 112.761719 392.095703 C 114.020012 387.968872 116.01799 384.5867 118.757813 381.951172 C 121.49765 379.315643 124.756378 377.355469 128.53125 376.068359 C 132.306122 374.78125 136.343933 374.136719 140.646484 374.136719 C 143.650162 374.136719 146.705399 374.50473 149.810547 375.240234 C 152.91568 375.975708 155.776459 377.221497 158.394531 378.978516 C 160.823685 380.608765 162.805664 382.785126 164.34375 385.505859 L 164.34375 375.117188 L 174.572266 375.117188 L 174.572266 386.027344 L 164.628906 386.027344 C 164.650818 386.068573 164.673599 386.108917 164.695313 386.150391 C 166.27832 389.174103 167.070313 392.974487 167.070313 397.550781 L 167.070313 442.783203 L 154.162109 442.783203 L 154.162109 433.466797 L 153.615234 433.466797 C 152.72226 435.223816 151.423523 436.920258 149.71875 438.554688 C 148.013962 440.189117 145.841476 441.537231 143.203125 442.599609 C 140.564758 443.661987 137.398773 444.193359 133.705078 444.193359 C 129.402527 444.193359 125.526329 443.405182 122.076172 441.832031 C 118.626022 440.258881 115.895927 437.941467 113.886719 434.876953 C 113.818581 434.77301 113.75528 434.666077 113.689453 434.560547 L 115.0625 442.416016 C 113.682434 442.783752 112.200188 443.049438 110.617188 443.212891 C 109.034172 443.376343 107.472107 443.457031 105.929688 443.457031 C 99.80069 443.457031 95.08152 441.934692 91.773438 438.890625 C 88.46534 435.846497 86.8125 431.484253 86.8125 425.804688 L 86.8125 386.027344 Z M 174.572266 386.027344 L 187.904297 386.027344 L 187.904297 424.580078 C 187.904297 427.236023 188.452896 429.176514 189.548828 430.402344 C 190.644775 431.628174 192.512039 432.240234 195.150391 432.240234 C 195.921616 432.240234 196.875198 432.168396 198.011719 432.025391 C 198.570145 431.955139 199.088318 431.889557 199.568359 431.824219 C 198.496658 429.768524 197.736481 427.477264 197.292969 424.947266 L 209.957031 422.863281 C 210.768845 426.418182 212.42363 429.064209 214.919922 430.800781 C 217.416214 432.537354 220.672989 433.40625 224.691406 433.40625 C 228.953354 433.40625 232.342789 432.515747 234.859375 430.738281 C 237.375961 428.960846 238.634766 426.806824 238.634766 424.273438 C 238.634766 422.066956 237.833771 420.259308 236.230469 418.849609 C 234.627151 417.439911 232.262161 416.386047 229.136719 415.691406 L 217.8125 413.179688 C 211.561646 411.749573 206.893448 409.471558 203.808594 406.345703 C 200.72377 403.219849 199.181641 399.205902 199.181641 394.302734 C 199.181641 391.254089 199.809967 388.495789 201.066406 386.027344 L 187.904297 386.027344 L 187.904297 375.117188 L 201.361328 375.117188 L 201.361328 385.470703 C 201.700851 384.861633 202.081192 384.271667 202.5 383.699219 C 204.712158 380.675537 207.765472 378.325684 211.662109 376.650391 C 215.558762 374.975098 220.043427 374.136719 225.117188 374.136719 C 230.02858 374.136719 234.26088 374.883575 237.8125 376.375 C 241.364151 377.866425 244.224915 379.959442 246.396484 382.65625 C 248.568054 385.353088 250.039322 388.499939 250.810547 392.095703 L 238.695313 394.179688 C 238.045868 391.605469 236.645416 389.377625 234.494141 387.498047 C 232.342865 385.618469 229.278625 384.679688 225.300781 384.679688 C 221.607086 384.679688 218.551849 385.516113 216.136719 387.191406 C 213.721619 388.866699 212.515625 391.011841 212.515625 393.626953 C 212.515625 395.874298 213.347534 397.692749 215.011719 399.082031 C 216.675919 400.471313 219.273361 401.575378 222.804688 402.392578 L 233.703125 404.84375 C 240.035187 406.273865 244.712387 408.501678 247.736328 411.525391 C 250.7603 414.549072 252.273438 418.44989 252.273438 423.230469 C 252.273438 427.3573 251.09642 431.005157 248.742188 434.171875 C 246.38797 437.338531 243.140182 439.810455 239 441.587891 C 234.859818 443.365326 230.089874 444.253906 224.691406 444.253906 C 219.73941 444.253906 215.336533 443.517883 211.480469 442.046875 C 207.62442 440.575867 204.478378 438.400177 202.042969 435.519531 C 201.855865 435.298218 201.675095 435.072662 201.498047 434.84375 L 202.822266 442.416016 C 201.4422 442.783752 199.959976 443.049438 198.376953 443.212891 C 196.793945 443.376343 195.231873 443.457031 193.689453 443.457031 C 187.560364 443.457031 182.841309 441.934692 179.533203 438.890625 C 176.225113 435.846497 174.572266 431.484222 174.572266 425.804688 L 174.572266 386.027344 Z M 187.904297 375.117188 L 174.572266 375.117188 L 174.572266 358.507813 L 187.904297 358.507813 L 187.904297 375.117188 Z M 100.146484 386.027344 L 100.146484 375.117188 L 113.601563 375.117188 L 113.601563 386.027344 L 100.146484 386.027344 Z M 100.146484 375.117188 L 86.8125 375.117188 L 86.8125 358.507813 L 100.146484 358.507813 L 100.146484 375.117188 Z M 136.628906 433.466797 C 140.322601 433.466797 143.446732 432.75238 146.003906 431.322266 C 148.561066 429.892151 150.510132 428.012665 151.849609 425.683594 C 153.189072 423.354523 153.859375 420.861023 153.859375 418.205078 L 153.859375 409.685547 C 153.412872 410.13501 152.539108 410.544373 151.240234 410.912109 C 149.94136 411.279846 148.459091 411.617371 146.794922 411.923828 C 145.130722 412.230286 143.486893 412.494019 141.863281 412.71875 C 140.239685 412.943481 138.819275 413.139282 137.601563 413.302734 C 135.166168 413.629639 132.904831 414.169861 130.814453 414.925781 C 128.72406 415.681702 127.058319 416.76413 125.820313 418.173828 C 124.582321 419.583527 123.964844 421.454132 123.964844 423.783203 C 123.964844 425.907959 124.502487 427.68512 125.578125 429.115234 C 126.653763 430.545349 128.144989 431.627777 130.052734 432.363281 C 131.960464 433.098755 134.152908 433.466797 136.628906 433.466797 Z M 146.857422 362.996094 C 141.580704 362.996094 137.003311 362.303345 133.126953 360.914063 C 129.25061 359.52478 126.064659 357.612854 123.568359 355.181641 C 121.072075 352.750427 119.275627 350.004028 118.179688 346.939453 L 129.6875 342.771484 C 130.45871 344.242462 131.533997 345.701782 132.914063 347.152344 C 134.294113 348.602905 136.099579 349.809326 138.332031 350.769531 C 140.564484 351.729767 143.385345 352.208984 146.794922 352.208984 C 151.990433 352.208984 156.17186 350.932678 159.337891 348.378906 C 162.503906 345.825104 164.087891 341.933319 164.087891 336.703125 L 164.087891 324.078125 L 163.173828 324.078125 C 162.199661 325.79425 160.931854 327.519287 159.369141 329.255859 C 157.806412 330.992432 155.746613 332.453705 153.189453 333.638672 C 150.632278 334.823639 147.424408 335.416016 143.568359 335.416016 C 138.210464 335.416016 133.391617 334.109253 129.109375 331.494141 C 124.827187 328.879059 121.457657 325.087646 119.001953 320.123047 C 117.043564 316.163849 115.86731 311.507446 115.470703 306.158203 L 69.621094 305.527344 C 69.618164 305.13739 69.615234 304.748718 69.615234 304.355469 L 69.615234 305.527344 L 69.621094 305.527344 C 69.651947 309.635101 69.889183 313.528442 71.316406 316.476563 C 72.879128 319.70459 75.091522 322.167542 77.953125 323.863281 C 80.81472 325.559021 84.153336 326.40625 87.96875 326.40625 C 90.525917 326.40625 92.840057 326.027405 94.910156 325.271484 C 96.980247 324.515564 98.745781 323.402618 100.207031 321.931641 C 101.668266 320.460663 102.763519 318.663818 103.494141 316.539063 L 116.037109 318.867188 C 115.022354 322.544678 113.214943 325.783081 110.617188 328.582031 C 108.019417 331.380981 104.782539 333.556641 100.90625 335.109375 C 97.029953 336.662109 92.677811 337.439453 87.847656 337.439453 C 81.190941 337.439453 75.4673 335.989014 70.677734 333.087891 C 65.888161 330.186768 62.204391 326.120819 59.626953 320.890625 C 57.049515 315.660431 55.761719 309.551636 55.761719 302.564453 C 55.761719 295.658966 57.038555 289.561035 59.595703 284.269531 C 62.152847 278.978027 65.765793 274.840271 70.433594 271.857422 C 75.101395 268.874573 80.541725 267.382813 86.751953 267.382813 C 90.81089 267.382813 94.65625 268.057861 98.289063 269.40625 C 101.921875 270.754639 105.147736 272.828003 107.96875 275.626953 C 110.789757 278.425903 113.013107 281.980194 114.636719 286.291016 C 115.30825 288.074005 115.838638 289.997559 116.232422 292.056641 C 116.846344 288.97052 117.768417 286.129639 119.001953 283.533203 C 121.457657 278.364319 124.827187 274.380981 129.109375 271.582031 C 133.391617 268.783081 138.252335 267.382813 143.691406 267.382813 C 147.588058 267.382813 150.824875 268.016541 153.402344 269.283203 C 155.979813 270.549896 158.079498 272.102661 159.703125 273.941406 C 161.326721 275.780151 162.605484 277.537598 163.539063 279.212891 L 164.269531 279.212891 L 164.269531 268.363281 L 177.238281 268.363281 L 177.238281 336.642578 C 177.238281 342.730835 175.899643 347.715881 173.220703 351.597656 C 170.541763 355.479431 166.908936 358.349792 162.322266 360.208984 C 157.73558 362.068176 152.580612 362.996094 146.857422 362.996094 Z M 201.177734 337.439453 C 196.875198 337.439453 192.998993 336.651245 189.548828 335.078125 C 186.098679 333.505005 183.368591 331.187622 181.359375 328.123047 C 179.350174 325.058472 178.345703 321.29953 178.345703 316.845703 C 178.345703 313.004761 179.086838 309.847076 180.568359 307.375 C 182.049911 304.902924 184.029861 302.951599 186.505859 301.521484 C 188.981857 300.09137 191.77182 299.008942 194.876953 298.273438 C 197.982086 297.537964 201.157089 296.986877 204.404297 296.619141 C 208.422729 296.128815 211.659531 295.719452 214.115234 295.392578 C 216.570938 295.065674 218.378342 294.555969 219.535156 293.861328 C 220.691986 293.166687 221.269531 292.021301 221.269531 290.427734 L 221.269531 290.060547 C 221.269531 287.568054 220.782761 285.453369 219.808594 283.716797 C 218.834427 281.980225 217.374115 280.642944 215.425781 279.703125 C 213.477478 278.763306 211.081543 278.292969 208.240234 278.292969 C 205.358337 278.292969 202.86264 278.752502 200.751953 279.671875 C 198.641266 280.591248 196.926605 281.776001 195.607422 283.226563 C 194.288254 284.677124 193.365555 286.219086 192.837891 287.853516 L 180.234375 285.341797 C 181.492676 281.214844 183.490646 277.832794 186.230469 275.197266 C 188.970306 272.561737 192.229034 270.601563 196.003906 269.314453 C 199.778793 268.027344 203.816605 267.382813 208.119141 267.382813 C 211.122818 267.382813 214.176117 267.750854 217.28125 268.486328 C 220.386383 269.221832 223.249146 270.46759 225.867188 272.224609 C 228.48526 273.981628 230.584961 276.372803 232.167969 279.396484 C 233.750992 282.420166 234.542969 286.220459 234.542969 290.796875 L 234.542969 336.029297 L 221.634766 336.029297 L 221.634766 326.712891 L 221.087891 326.712891 C 220.194901 328.46991 218.89621 330.166351 217.191406 331.800781 C 215.486633 333.435211 213.314133 334.783325 210.675781 335.845703 C 208.03743 336.908081 204.871429 337.439453 201.177734 337.439453 Z M 444.400391 337.439453 C 438.068329 337.439453 432.539307 335.97818 427.810547 333.056641 C 423.081818 330.135101 419.407104 326.049438 416.789063 320.798828 C 414.17099 315.548218 412.863281 309.448303 412.863281 302.501953 C 412.863281 295.473877 414.17099 289.325745 416.789063 284.054688 C 419.407104 278.78363 423.081818 274.687164 427.810547 271.765625 C 432.539307 268.844086 438.068329 267.382813 444.400391 267.382813 C 450.77301 267.382813 456.324005 268.844086 461.052734 271.765625 C 465.781494 274.687164 469.454163 278.78363 472.072266 284.054688 C 474.690308 289.325745 476 295.473877 476 302.501953 C 476 309.448303 474.690308 315.548218 472.072266 320.798828 C 469.454163 326.049438 465.781494 330.135101 461.052734 333.056641 C 456.324005 335.97818 450.77301 337.439453 444.400391 337.439453 Z M 52.339844 336.703125 C 46.210793 336.703125 41.491661 335.180847 38.183594 332.136719 C 34.87553 329.09259 33.220703 324.730438 33.220703 319.050781 L 33.220703 279.273438 L 46.554688 279.273438 L 46.554688 317.826172 C 46.554688 320.482117 47.103287 322.422607 48.199219 323.648438 C 49.295151 324.874268 51.162453 325.486328 53.800781 325.486328 C 54.571995 325.486328 55.525585 325.41449 56.662109 325.271484 C 57.79863 325.128479 58.772182 324.997559 59.583984 324.875 L 61.472656 335.662109 C 60.092594 336.029846 58.610359 336.295532 57.027344 336.458984 C 55.444328 336.622437 53.882267 336.703125 52.339844 336.703125 Z M 46.554688 279.273438 L 46.554688 268.363281 L 60.009766 268.363281 L 60.009766 279.273438 L 46.554688 279.273438 Z M 46.554688 268.363281 L 33.220703 268.363281 L 33.220703 251.753906 L 46.554688 251.753906 L 46.554688 268.363281 Z M 33.220703 268.363281 L 33.220703 279.273438 L 22.992188 279.273438 L 22.992188 268.363281 L 33.220703 268.363281 Z M 239.941406 336.029297 L 239.941406 268.363281 L 252.666016 268.363281 L 252.863281 280.708984 C 252.837418 280.776123 252.810623 280.842468 252.785156 280.910156 C 252.813019 280.915253 252.840057 280.924561 252.867188 280.931641 L 252.863281 280.708984 C 253.796265 278.286804 254.987976 276.204041 256.441406 274.462891 C 258.470917 272.031677 260.84494 270.204346 263.564453 268.978516 C 266.283997 267.752686 269.124817 267.138672 272.087891 267.138672 C 276.999268 267.138672 281.037109 268.66095 284.203125 271.705078 C 286.690979 274.097168 288.514343 277.166321 289.673828 280.908203 C 289.699341 280.903931 289.723938 280.901001 289.75 280.898438 C 290.632568 278.688782 291.806488 276.714539 293.277344 274.982422 C 295.428619 272.449066 298.035065 270.508545 301.099609 269.160156 C 304.164185 267.811768 307.482758 267.138672 311.054688 267.138672 C 315.032501 267.138672 318.656311 268.016418 321.923828 269.773438 C 325.191315 271.530457 327.779785 274.144012 329.6875 277.617188 C 331.595245 281.090332 332.546875 285.422028 332.546875 290.611328 L 332.546875 336.029297 L 319.273438 336.029297 L 319.273438 291.960938 C 319.273438 287.343689 318.005646 284.01178 315.46875 281.96875 C 312.931885 279.92572 309.918488 278.90625 306.427734 278.90625 C 303.627045 278.90625 301.200195 279.498627 299.150391 280.683594 C 297.100586 281.868561 295.529541 283.512848 294.433594 285.617188 C 293.337677 287.721527 292.789063 290.143188 292.789063 292.880859 L 292.789063 336.029297 L 279.699219 336.029297 L 279.699219 291.042969 C 279.699219 287.365479 278.533142 284.423279 276.199219 282.216797 C 273.865295 280.010315 270.869873 278.90625 267.216797 278.90625 C 264.740814 278.90625 262.437622 279.487793 260.306641 280.652344 C 258.17569 281.816864 256.471954 283.53302 255.193359 285.800781 C 253.91478 288.068542 253.275391 290.875977 253.275391 294.226563 L 253.275391 336.029297 L 239.941406 336.029297 Z M 336.548828 336.029297 L 336.548828 287.132813 L 349.882813 287.132813 L 349.882813 336.029297 L 336.548828 336.029297 Z M 354.583984 336.029297 L 354.583984 268.363281 L 367.369141 268.363281 L 367.414063 280.675781 C 366.79364 282.004913 366.229828 283.436584 365.724609 284.972656 L 367.429688 284.972656 L 367.414063 280.675781 C 369.236206 276.772278 371.555084 273.761047 374.371094 271.642578 C 378.145996 268.802734 382.712463 267.382813 388.070313 267.382813 C 392.657013 267.382813 396.685822 268.362915 400.15625 270.324219 C 403.62674 272.285553 406.334869 275.177551 408.283203 278.998047 C 410.231537 282.818542 411.207031 287.548706 411.207031 293.1875 L 411.207031 336.029297 L 397.933594 336.029297 L 397.933594 294.841797 C 397.933594 289.85675 396.665802 285.98468 394.128906 283.226563 C 391.592041 280.468445 388.109863 279.089844 383.685547 279.089844 C 380.681885 279.089844 377.982727 279.743225 375.587891 281.050781 C 373.193085 282.358337 371.316803 284.279114 369.957031 286.8125 C 368.59729 289.345886 367.917969 292.47113 367.917969 296.189453 L 367.917969 336.029297 L 354.583984 336.029297 Z M 204.101563 326.712891 C 207.795258 326.712891 210.919388 325.998474 213.476563 324.568359 C 216.033737 323.138245 217.982788 321.258759 219.322266 318.929688 C 220.661743 316.600616 221.330078 314.107117 221.330078 311.451172 L 221.330078 302.931641 C 220.883606 303.381104 220.01178 303.790466 218.712891 304.158203 C 217.414017 304.52594 215.931778 304.863464 214.267578 305.169922 C 212.603409 305.476379 210.959549 305.740112 209.335938 305.964844 C 207.712326 306.189575 206.291931 306.385376 205.074219 306.548828 C 202.638824 306.875732 200.375549 307.415955 198.285156 308.171875 C 196.194763 308.927795 194.530975 310.010254 193.292969 311.419922 C 192.054977 312.82962 191.4375 314.700226 191.4375 317.029297 C 191.4375 319.154053 191.975143 320.931213 193.050781 322.361328 C 194.126419 323.791473 195.617676 324.873901 197.525391 325.609375 C 199.433121 326.344849 201.62558 326.712891 204.101563 326.712891 Z M 444.400391 326.099609 C 448.418793 326.099609 451.777313 325.047668 454.476563 322.943359 C 457.175781 320.83902 459.195709 317.999146 460.535156 314.423828 C 461.874634 310.848511 462.544922 306.874084 462.544922 302.501953 C 462.544922 298.048126 461.874634 294.034302 460.535156 290.458984 C 459.195709 286.883667 457.175781 284.032959 454.476563 281.908203 C 451.777313 279.783447 448.418793 278.722656 444.400391 278.722656 C 440.381958 278.722656 437.043427 279.783447 434.384766 281.908203 C 431.726105 284.032959 429.728119 286.883667 428.388672 290.458984 C 427.049194 294.034302 426.378906 298.048126 426.378906 302.501953 C 426.378906 306.874084 427.049194 310.848511 428.388672 314.423828 C 429.728119 317.999146 431.726105 320.83902 434.384766 322.943359 C 437.043427 325.047668 440.381958 326.099609 444.400391 326.099609 Z M 146.613281 324.199219 C 150.388168 324.199219 153.594055 323.301788 156.232422 321.503906 C 158.870773 319.706024 160.8797 317.131836 162.259766 313.78125 C 163.639832 310.430664 164.330078 306.42572 164.330078 301.767578 C 164.330078 297.191162 163.639832 293.186218 162.259766 289.753906 C 160.8797 286.321594 158.870773 283.6362 156.232422 281.695313 C 153.594055 279.754425 150.388168 278.783203 146.613281 278.783203 C 142.797821 278.783203 139.561005 279.774109 136.902344 281.755859 C 134.243698 283.73761 132.234772 286.455475 130.875 289.908203 C 129.515228 293.360962 128.833984 297.313751 128.833984 301.767578 C 128.833984 306.343994 129.524231 310.307617 130.904297 313.658203 C 132.284363 317.008789 134.293289 319.602661 136.931641 321.441406 C 139.570007 323.280151 142.797821 324.199219 146.613281 324.199219 Z M 69.615234 298.488281 C 69.615234 297.698425 69.619659 296.915955 69.638672 296.142578 L 103.410156 296.142578 L 104.576172 296.142578 C 104.576172 292.015625 103.444176 291.604218 102.125 288.4375 C 100.805824 285.270782 98.856766 282.8078 96.279297 281.050781 C 93.70182 279.293762 90.546783 278.416016 86.8125 278.416016 C 83.078209 278.416016 79.881294 279.315399 77.222656 281.113281 C 74.564003 282.911133 72.52417 285.300354 71.103516 288.283203 C 69.987984 290.625397 69.708176 293.315063 69.638672 296.142578 L 69.615234 296.142578 L 69.615234 298.488281 Z M 343.246094 281.222656 C 340.932465 281.222656 338.965393 280.436432 337.341797 278.863281 C 335.71817 277.290161 334.90625 275.399841 334.90625 273.193359 C 334.90625 270.946014 335.71817 269.055725 337.341797 267.523438 C 338.965393 265.99115 340.932465 265.226563 343.246094 265.226563 C 345.559723 265.226563 347.528717 265.99115 349.152344 267.523438 C 350.77597 269.055725 351.587891 270.946014 351.587891 273.193359 C 351.587891 275.399841 350.77597 277.290161 349.152344 278.863281 C 347.528717 280.436432 345.559723 281.222656 343.246094 281.222656 Z M 321.560547 255.261719 C 319.652802 255.261719 317.89624 255.141647 316.292969 254.896484 C 314.689636 254.651321 313.421844 254.403366 312.488281 254.158203 L 315.042969 243.128906 L 317.785156 243.494141 C 319.855225 243.943604 321.720551 244.004608 323.384766 243.677734 C 325.04895 243.350861 326.502258 242.503632 327.740234 241.134766 C 328.97821 239.76593 329.982697 237.731995 330.753906 235.035156 L 332.519531 229.398438 L 306.886719 161.609375 L 321.193359 161.609375 L 334.527344 199.792969 C 335.988556 203.879028 337.227417 207.955841 338.242188 212.021484 C 338.607788 213.486389 338.983795 214.949829 339.365234 216.412109 C 339.445984 216.401489 339.527374 216.393097 339.609375 216.386719 C 340.008423 214.923706 340.404999 213.458496 340.798828 211.990234 C 341.894745 207.904144 343.153564 203.838196 344.574219 199.792969 L 358.091797 161.609375 L 372.216797 161.609375 L 342.748047 239.205078 C 341.408569 242.719116 339.755737 245.670181 337.787109 248.060547 C 335.818481 250.450897 333.493378 252.24968 330.814453 253.455078 C 328.135498 254.660461 325.05127 255.261719 321.560547 255.261719 Z M 87.298828 230.685547 C 80.966789 230.685547 75.437714 229.224274 70.708984 226.302734 C 65.980255 223.381195 62.305553 219.295532 59.6875 214.044922 C 57.06945 208.794312 55.761719 202.694397 55.761719 195.748047 C 55.761719 188.720001 57.06945 182.571838 59.6875 177.300781 C 62.305553 172.029724 65.980255 167.933258 70.708984 165.011719 C 75.437714 162.090149 80.966789 160.628906 87.298828 160.628906 C 93.671455 160.628906 99.222443 162.090149 103.951172 165.011719 C 108.679901 167.933258 112.352638 172.029724 114.970703 177.300781 C 117.588753 182.571838 118.898438 188.720001 118.898438 195.748047 C 118.898438 202.694397 117.588753 208.794312 114.970703 214.044922 C 112.352638 219.295532 108.679901 223.381195 103.951172 226.302734 C 99.222443 229.224274 93.671455 230.685547 87.298828 230.685547 Z M 52.339844 229.949219 C 46.210747 229.949219 41.491684 228.426941 38.183594 225.382813 C 34.875507 222.338654 33.220703 217.976532 33.220703 212.296875 L 33.220703 172.519531 L 46.554688 172.519531 L 46.554688 211.072266 C 46.554688 213.72821 47.103287 215.668701 48.199219 216.894531 C 49.295151 218.120331 51.16243 218.732422 53.800781 218.732422 C 54.571995 218.732422 55.525585 218.660583 56.662109 218.517578 C 57.79863 218.374573 58.772182 218.24173 59.583984 218.119141 L 61.472656 228.908203 C 60.092594 229.27594 58.610359 229.539673 57.027344 229.703125 C 55.444328 229.866547 53.882267 229.949219 52.339844 229.949219 Z M 46.554688 172.519531 L 46.554688 161.609375 L 60.009766 161.609375 L 60.009766 172.519531 L 46.554688 172.519531 Z M 46.554688 161.609375 L 33.220703 161.609375 L 33.220703 145 L 46.554688 145 L 46.554688 161.609375 Z M 33.220703 161.609375 L 33.220703 172.519531 L 22.992188 172.519531 L 22.992188 161.609375 L 33.220703 161.609375 Z M 121.076172 229.275391 L 121.076172 161.609375 L 133.800781 161.609375 L 133.998047 173.955078 C 133.972183 174.022217 133.945389 174.088562 133.919922 174.15625 C 133.947784 174.161346 133.974808 174.170654 134.001953 174.177734 L 133.998047 173.955078 C 134.93103 171.532898 136.120789 169.450104 137.574219 167.708984 C 139.603714 165.27774 141.979691 163.450409 144.699219 162.224609 C 147.418762 160.998779 150.259583 160.384766 153.222656 160.384766 C 158.134033 160.384766 162.171875 161.907043 165.337891 164.951172 C 167.825729 167.343231 169.649124 170.412384 170.808594 174.154297 C 170.834137 174.150024 170.858688 174.147095 170.884766 174.144531 C 171.767334 171.934875 172.939301 169.960602 174.410156 168.228516 C 176.561432 165.695129 179.16983 163.754669 182.234375 162.40625 C 185.29892 161.057861 188.617538 160.384766 192.189453 160.384766 C 196.167267 160.384766 199.789139 161.262512 203.056641 163.019531 C 206.324158 164.776581 208.912582 167.390137 210.820313 170.863281 C 212.728043 174.336456 213.681641 178.668121 213.681641 183.857422 L 213.681641 229.275391 L 200.408203 229.275391 L 200.408203 185.207031 C 200.408203 180.589783 199.140411 177.257874 196.603516 175.214844 C 194.06665 173.171783 191.053253 172.152344 187.5625 172.152344 C 184.76181 172.152344 182.334961 172.74472 180.285156 173.929688 C 178.235367 175.114655 176.662354 176.758942 175.566406 178.863281 C 174.47049 180.96759 173.923828 183.389282 173.923828 186.126953 L 173.923828 229.275391 L 160.833984 229.275391 L 160.833984 184.289063 C 160.833984 180.611572 159.667908 177.669373 157.333984 175.462891 C 155.000061 173.256439 152.004654 172.152344 148.351563 172.152344 C 145.87558 172.152344 143.572388 172.733917 141.441406 173.898438 C 139.31044 175.062958 137.60672 176.779114 136.328125 179.046875 C 135.049545 181.314636 134.408203 184.12207 134.408203 187.472656 L 134.408203 229.275391 L 121.076172 229.275391 Z M 217.798828 229.275391 L 217.798828 161.609375 L 230.525391 161.609375 L 230.720703 173.955078 C 230.694839 174.022217 230.668045 174.088562 230.642578 174.15625 C 230.670441 174.161346 230.697479 174.170654 230.724609 174.177734 L 230.720703 173.955078 C 231.653687 171.532898 232.845398 169.450104 234.298828 167.708984 C 236.328339 165.27774 238.7043 163.450409 241.423828 162.224609 C 244.143372 160.998779 246.984207 160.384766 249.947266 160.384766 C 254.858658 160.384766 258.896515 161.907043 262.0625 164.951172 C 264.550354 167.343231 266.371796 170.412384 267.53125 174.154297 C 267.556793 174.150024 267.583313 174.147095 267.609375 174.144531 C 268.491943 171.934875 269.66391 169.960602 271.134766 168.228516 C 273.286041 165.695129 275.892487 163.754669 278.957031 162.40625 C 282.021576 161.057861 285.342163 160.384766 288.914063 160.384766 C 292.891876 160.384766 296.513733 161.262512 299.78125 163.019531 C 303.048767 164.776581 305.637177 167.390137 307.544922 170.863281 C 309.452667 174.336456 310.40625 178.668121 310.40625 183.857422 L 310.40625 229.275391 L 297.132813 229.275391 L 297.132813 185.207031 C 297.132813 180.589783 295.863068 177.257874 293.326172 175.214844 C 290.789307 173.171783 287.775879 172.152344 284.285156 172.152344 C 281.484436 172.152344 279.059601 172.74472 277.009766 173.929688 C 274.959991 175.114655 273.386963 176.758942 272.291016 178.863281 C 271.195099 180.96759 270.648438 183.389282 270.648438 186.126953 L 270.648438 229.275391 L 257.558594 229.275391 L 257.558594 184.289063 C 257.558594 180.611572 256.390564 177.669373 254.056641 175.462891 C 251.722717 173.256439 248.729263 172.152344 245.076172 172.152344 C 242.600189 172.152344 240.296997 172.733917 238.166016 173.898438 C 236.035049 175.062958 234.329376 176.779114 233.050781 179.046875 C 231.772202 181.314636 231.132813 184.12207 231.132813 187.472656 L 231.132813 229.275391 L 217.798828 229.275391 Z M 87.298828 219.345703 C 91.31723 219.345703 94.675751 218.293793 97.375 216.189453 C 100.074234 214.085144 102.094116 211.245239 103.433594 207.669922 C 104.773064 204.094604 105.443359 200.120148 105.443359 195.748047 C 105.443359 191.29422 104.773064 187.280396 103.433594 183.705078 C 102.094116 180.129761 100.074234 177.279053 97.375 175.154297 C 94.675751 173.02951 91.31723 171.96875 87.298828 171.96875 C 83.280426 171.96875 79.941849 173.02951 77.283203 175.154297 C 74.62455 177.279053 72.626579 180.129761 71.287109 183.705078 C 69.947639 187.280396 69.277344 191.29422 69.277344 195.748047 C 69.277344 200.120148 69.947639 204.094604 71.287109 207.669922 C 72.626579 211.245239 74.62455 214.085144 77.283203 216.189453 C 79.941849 218.293793 83.280426 219.345703 87.298828 219.345703 Z"/>
</svg>
