<?xml version="1.0" encoding="UTF-8"?>
<!-- Generated by Pixelmator Pro 3.6.4 -->
<svg width="500" height="500" viewBox="0 0 500 500" xmlns="http://www.w3.org/2000/svg">
    <path id="Percorso" fill="#000000" fill-rule="evenodd" stroke="none" d="M 427.249512 130.826477 C 427.249512 134.345886 430.105072 137.201447 433.624481 137.201447 C 437.14389 137.201447 439.999451 134.345886 439.999451 130.826477 L 439.999451 66.374969 C 439.999451 62.85556 437.14389 60 433.624481 60 L 369.172974 60 C 365.653564 60 362.798004 62.85556 362.798004 66.374969 C 362.798004 69.894379 365.653564 72.749939 369.172974 72.749939 L 418.235291 72.749939 L 356.867706 134.117523 C 354.377441 136.607819 354.377441 140.641907 356.867706 143.132172 C 359.358002 145.622437 363.392059 145.622437 365.882355 143.132172 L 427.249939 81.764587 Z"/>
    <path id="tommy-tegamino-stats" fill="#000000" fill-rule="evenodd" stroke="none" d="M 56.265625 444.253906 C 52.016304 444.253906 48.236622 443.626953 44.927734 442.373047 C 41.618847 441.119141 38.919884 439.26413 36.830078 436.808594 C 34.740276 434.353027 33.380863 431.349609 32.753906 427.796875 L 43.621094 426.019531 C 44.317711 429.049805 45.736855 431.30484 47.878906 432.785156 C 50.020958 434.265472 52.817413 435.005859 56.265625 435.005859 C 59.922821 435.005859 62.830769 434.249512 64.990234 432.734375 C 67.14975 431.219238 68.230469 429.382172 68.230469 427.222656 C 68.230469 425.341797 67.54184 423.799316 66.166016 422.597656 C 64.790192 421.395996 62.760056 420.498383 60.078125 419.90625 L 50.361328 417.765625 C 44.997417 416.546539 40.990849 414.604004 38.34375 411.939453 C 35.696651 409.274902 34.375 405.853455 34.375 401.673828 C 34.375 398.225586 35.322418 395.21225 37.220703 392.634766 C 39.118988 390.057281 41.740269 388.055023 45.083984 386.626953 C 48.4277 385.198883 52.277046 384.484375 56.630859 384.484375 C 60.845348 384.484375 64.475739 385.119293 67.523438 386.390625 C 70.571144 387.661957 73.027168 389.447266 74.890625 391.746094 C 74.921364 391.783997 74.950058 391.823212 74.980469 391.861328 L 74.980469 385.320313 L 83.757813 385.320313 L 83.757813 394.621094 L 76.800781 394.621094 C 77.649124 396.203186 78.276772 397.926819 78.679688 399.792969 L 68.28125 401.568359 C 67.723953 399.374023 66.52182 397.477234 64.675781 395.875 C 62.829742 394.272766 60.200489 393.470703 56.787109 393.470703 C 53.617546 393.470703 50.996216 394.185211 48.923828 395.613281 C 46.85144 397.041351 45.816406 398.868469 45.816406 401.097656 C 45.816406 403.013367 46.528965 404.563782 47.957031 405.748047 C 49.385098 406.932312 51.614292 407.873688 54.644531 408.570313 L 63.998047 410.660156 C 69.431572 411.879242 73.446114 413.777985 76.041016 416.355469 C 78.635918 418.932953 79.933594 422.25885 79.933594 426.333984 C 79.933594 429.851898 78.922539 432.960754 76.902344 435.660156 C 74.882149 438.359497 72.095718 440.465332 68.542969 441.980469 C 64.990219 443.495605 60.898087 444.253906 56.265625 444.253906 Z M 83.757813 394.621094 L 95.199219 394.621094 L 95.199219 427.482422 C 95.199219 429.746429 95.668938 431.400391 96.609375 432.445313 C 97.549805 433.490234 99.152 434.013672 101.416016 434.013672 C 102.077797 434.013672 102.895828 433.951996 103.871094 433.830078 C 104.521309 433.74881 105.086929 433.673157 105.613281 433.599609 C 104.80809 431.558105 104.404297 429.241119 104.404297 426.646484 C 104.404297 423.372375 105.041176 420.681488 106.3125 418.574219 C 107.583832 416.466949 109.281563 414.805023 111.40625 413.585938 C 113.530937 412.366852 115.925278 411.443359 118.589844 410.816406 C 121.25441 410.189453 123.979156 409.719727 126.765625 409.40625 C 130.213867 408.988281 132.99234 408.639984 135.099609 408.361328 C 137.206879 408.082672 138.757309 407.64682 139.75 407.054688 C 140.742676 406.462555 141.238281 405.487305 141.238281 404.128906 L 141.238281 403.816406 C 141.238281 401.691711 140.820313 399.888519 139.984375 398.408203 C 139.148422 396.927887 137.894531 395.787445 136.222656 394.986328 C 134.550766 394.185211 132.494797 393.785156 130.056641 393.785156 C 127.583641 393.785156 125.44207 394.175293 123.630859 394.958984 C 121.819656 395.742676 120.348801 396.753723 119.216797 397.990234 C 118.084793 399.226746 117.292648 400.540344 116.839844 401.933594 L 106.023438 399.792969 C 107.103195 396.275055 108.81884 393.393066 111.169922 391.146484 C 113.521011 388.899902 116.317368 387.228027 119.556641 386.130859 C 122.795914 385.033691 126.26104 384.484375 129.953125 384.484375 C 132.530609 384.484375 135.15184 384.798828 137.816406 385.425781 C 140.480957 386.052734 142.936996 387.113586 145.183594 388.611328 C 147.267349 390.000488 148.967453 391.855743 150.287109 394.173828 L 150.287109 385.320313 L 159.064453 385.320313 L 159.064453 394.621094 L 150.533203 394.621094 C 150.551819 394.655914 150.571381 394.689575 150.589844 394.724609 C 151.948242 397.302094 152.626953 400.540466 152.626953 404.441406 L 152.626953 443 L 141.550781 443 L 141.550781 435.058594 L 141.082031 435.058594 C 140.31575 436.556335 139.201172 438.001282 137.738281 439.394531 C 136.275375 440.787781 134.410492 441.938141 132.146484 442.84375 C 129.882477 443.749359 127.16571 444.201172 123.996094 444.201172 C 120.304016 444.201172 116.978203 443.530457 114.017578 442.189453 C 111.056953 440.84845 108.714363 438.87204 106.990234 436.259766 C 106.931183 436.170288 106.875389 436.079163 106.818359 435.988281 L 108 442.6875 C 106.815742 443.000977 105.543945 443.225922 104.185547 443.365234 C 102.827141 443.504547 101.48568 443.574219 100.162109 443.574219 C 94.902748 443.574219 90.85434 442.276489 88.015625 439.681641 C 85.176903 437.086792 83.757813 433.368744 83.757813 428.527344 L 83.757813 394.621094 Z M 159.064453 394.621094 L 170.505859 394.621094 L 170.505859 427.482422 C 170.505859 429.746429 170.977539 431.400391 171.917969 432.445313 C 172.858414 433.490234 174.460602 434.013672 176.724609 434.013672 C 177.386398 434.013672 178.204422 433.951996 179.179688 433.830078 C 179.658859 433.770172 180.101761 433.713898 180.513672 433.658203 C 179.594208 431.906036 178.943039 429.953247 178.5625 427.796875 L 189.429688 426.019531 C 190.126312 429.049805 191.545395 431.30484 193.6875 432.785156 C 195.829605 434.265472 198.625961 435.005859 202.074219 435.005859 C 205.731461 435.005859 208.639313 434.249512 210.798828 432.734375 C 212.958344 431.219238 214.037109 429.382172 214.037109 427.222656 C 214.037109 425.341797 213.350433 423.799316 211.974609 422.597656 C 210.598785 421.395996 208.568695 420.498383 205.886719 419.90625 L 196.169922 417.765625 C 190.805969 416.546539 186.7995 414.604004 184.152344 411.939453 C 181.505203 409.274902 180.181641 405.853424 180.181641 401.673828 C 180.181641 399.0755 180.721008 396.724976 181.798828 394.621094 L 170.505859 394.621094 L 170.505859 385.320313 L 182.052734 385.320313 L 182.052734 394.148438 C 182.344437 393.628357 182.669327 393.123535 183.029297 392.634766 C 184.927582 390.057281 187.548813 388.055023 190.892578 386.626953 C 194.236343 385.198883 198.085587 384.484375 202.439453 384.484375 C 206.653992 384.484375 210.284332 385.119293 213.332031 386.390625 C 216.379745 387.661957 218.83577 389.447266 220.699219 391.746094 C 222.562668 394.044922 223.824539 396.727844 224.486328 399.792969 L 214.089844 401.568359 C 213.532547 399.374023 212.330414 397.477234 210.484375 395.875 C 208.638336 394.272766 206.00914 393.470703 202.595703 393.470703 C 199.426086 393.470703 196.804871 394.185211 194.732422 395.613281 C 192.659988 397.041351 191.625 398.868469 191.625 401.097656 C 191.625 403.013367 192.337555 404.563782 193.765625 405.748047 C 195.193695 406.932312 197.422836 407.873688 200.453125 408.570313 L 209.806641 410.660156 C 215.240265 411.879242 219.254715 413.777985 221.849609 416.355469 C 224.444519 418.932953 225.740234 422.258881 225.740234 426.333984 C 225.740234 429.851898 224.73114 432.960754 222.710938 435.660156 C 220.69075 438.359497 217.904312 440.465332 214.351563 441.980469 C 210.798813 443.495605 206.706726 444.253906 202.074219 444.253906 C 197.824844 444.253906 194.045273 443.626953 190.736328 442.373047 C 187.427399 441.119141 184.728531 439.264099 182.638672 436.808594 C 182.477875 436.619659 182.322052 436.425903 182.169922 436.230469 L 183.306641 442.6875 C 182.122391 443.000977 180.850601 443.225922 179.492188 443.365234 C 178.133789 443.504547 176.794281 443.574219 175.470703 443.574219 C 170.211243 443.574219 166.160995 442.276489 163.322266 439.681641 C 160.483551 437.086792 159.064453 433.368713 159.064453 428.527344 L 159.064453 394.621094 Z M 170.505859 385.320313 L 159.064453 385.320313 L 159.064453 371.162109 L 170.505859 371.162109 L 170.505859 385.320313 Z M 95.199219 394.621094 L 95.199219 385.320313 L 106.746094 385.320313 L 106.746094 394.621094 L 95.199219 394.621094 Z M 95.199219 385.320313 L 83.757813 385.320313 L 83.757813 371.162109 L 95.199219 371.162109 L 95.199219 385.320313 Z M 126.503906 435.058594 C 129.673523 435.058594 132.35643 434.449554 134.550781 433.230469 C 136.745117 432.011383 138.416977 430.40918 139.566406 428.423828 C 140.71582 426.438477 141.291016 424.312836 141.291016 422.048828 L 141.291016 414.787109 C 140.907867 415.170258 140.157547 415.518555 139.042969 415.832031 C 137.928375 416.145508 136.658524 416.432129 135.230469 416.693359 C 133.802399 416.95459 132.391281 417.181488 130.998047 417.373047 C 129.604797 417.564606 128.384766 417.729828 127.339844 417.869141 C 125.249992 418.147797 123.309418 418.609528 121.515625 419.253906 C 119.721832 419.898285 118.292816 420.821777 117.230469 422.023438 C 116.168129 423.225098 115.636719 424.819336 115.636719 426.804688 C 115.636719 428.615906 116.098465 430.130524 117.021484 431.349609 C 117.944504 432.568695 119.224274 433.490234 120.861328 434.117188 C 122.498383 434.744141 124.379219 435.058594 126.503906 435.058594 Z M 135.28125 374.988281 C 130.753235 374.988281 126.826355 374.395203 123.5 373.210938 C 120.173653 372.026672 117.440933 370.398621 115.298828 368.326172 C 113.156731 366.253723 111.614265 363.913086 110.673828 361.300781 L 120.548828 357.746094 C 121.210617 359 122.134109 360.245911 123.318359 361.482422 C 124.502609 362.718933 126.051102 363.745911 127.966797 364.564453 C 129.882492 365.382996 132.304672 365.792969 135.230469 365.792969 C 139.688812 365.792969 143.275375 364.704285 145.992188 362.527344 C 148.708984 360.350403 150.068359 357.032593 150.068359 352.574219 L 150.068359 341.8125 L 149.283203 341.8125 C 148.44725 343.275391 147.360519 344.746246 146.019531 346.226563 C 144.678528 347.706879 142.90918 348.952789 140.714844 349.962891 C 138.520493 350.972992 135.769867 351.476563 132.460938 351.476563 C 127.863319 351.476563 123.727394 350.362 120.052734 348.132813 C 116.378075 345.903625 113.486176 342.67334 111.378906 338.441406 C 109.698357 335.066406 108.691681 331.097046 108.351563 326.537109 L 69.005859 326 C 69.003342 325.667511 69 325.335266 69 325 L 69 326 L 69.005859 326 C 69.032341 329.501495 69.236237 332.820984 70.460938 335.333984 C 71.801926 338.085632 73.698715 340.183411 76.154297 341.628906 C 78.609871 343.074402 81.475891 343.796875 84.75 343.796875 C 86.944344 343.796875 88.928696 343.474457 90.705078 342.830078 C 92.481453 342.185699 93.998039 341.238281 95.251953 339.984375 C 96.505859 338.730469 97.445305 337.197937 98.072266 335.386719 L 108.835938 337.371094 C 107.965164 340.505859 106.414719 343.266418 104.185547 345.652344 C 101.956367 348.038269 99.17791 349.893219 95.851563 351.216797 C 92.525208 352.540375 88.789345 353.201172 84.644531 353.201172 C 78.93232 353.201172 74.022095 351.965179 69.912109 349.492188 C 65.802124 347.019196 62.641418 343.554077 60.429688 339.095703 C 58.217957 334.637329 57.111328 329.428741 57.111328 323.472656 C 57.111328 317.586243 58.208027 312.389526 60.402344 307.878906 C 62.596661 303.368286 65.697632 299.841492 69.703125 297.298828 C 73.708618 294.756165 78.376007 293.484375 83.705078 293.484375 C 87.188164 293.484375 90.488098 294.05957 93.605469 295.208984 C 96.722832 296.358398 99.491356 298.125793 101.912109 300.511719 C 104.332855 302.897644 106.239571 305.92688 107.632813 309.601563 C 108.208473 311.119873 108.664146 312.758545 109.001953 314.511719 C 109.528572 311.883301 110.321121 309.463684 111.378906 307.251953 C 113.486176 302.845825 116.378075 299.448425 120.052734 297.0625 C 123.727394 294.676575 127.897171 293.484375 132.564453 293.484375 C 135.908218 293.484375 138.686676 294.023743 140.898438 295.103516 C 143.110199 296.183289 144.913391 297.506836 146.306641 299.074219 C 147.699875 300.641602 148.796539 302.140289 149.597656 303.568359 L 150.224609 303.568359 L 150.224609 294.320313 L 161.353516 294.320313 L 161.353516 352.523438 C 161.353516 357.713257 160.203125 361.960602 157.904297 365.269531 C 155.605453 368.578461 152.488617 371.02652 148.552734 372.611328 C 144.616837 374.196136 140.192398 374.988281 135.28125 374.988281 Z M 181.896484 353.201172 C 178.204422 353.201172 174.878601 352.530457 171.917969 351.189453 C 168.957352 349.84845 166.614761 347.87207 164.890625 345.259766 C 163.166504 342.647461 162.304688 339.443054 162.304688 335.646484 C 162.304688 332.372375 162.939621 329.681488 164.210938 327.574219 C 165.482269 325.466949 167.180008 323.805023 169.304688 322.585938 C 171.429382 321.366852 173.82373 320.443359 176.488281 319.816406 C 179.152847 319.189453 181.879547 318.719727 184.666016 318.40625 C 188.114288 317.988281 190.890778 317.639954 192.998047 317.361328 C 195.105316 317.082703 196.655762 316.64682 197.648438 316.054688 C 198.641129 315.462555 199.136719 314.487305 199.136719 313.128906 L 199.136719 312.816406 C 199.136719 310.691711 198.718765 308.888519 197.882813 307.408203 C 197.046875 305.927887 195.792984 304.787445 194.121094 303.986328 C 192.449219 303.185211 190.395203 302.785156 187.957031 302.785156 C 185.484039 302.785156 183.342468 303.175293 181.53125 303.958984 C 179.720047 304.742676 178.247238 305.753723 177.115234 306.990234 C 175.983231 308.226746 175.191086 309.540344 174.738281 310.933594 L 163.923828 308.792969 C 165.003586 305.275055 166.719238 302.393066 169.070313 300.146484 C 171.421402 297.899902 174.215805 296.228027 177.455078 295.130859 C 180.694351 294.033691 184.1595 293.484375 187.851563 293.484375 C 190.429062 293.484375 193.050293 293.798828 195.714844 294.425781 C 198.37941 295.052734 200.835449 296.113586 203.082031 297.611328 C 205.328629 299.10907 207.131836 301.147125 208.490234 303.724609 C 209.848648 306.302094 210.527344 309.540344 210.527344 313.441406 L 210.527344 352 L 199.451172 352 L 199.451172 344.058594 L 198.980469 344.058594 C 198.214188 345.556335 197.099625 347.001282 195.636719 348.394531 C 194.173828 349.787781 192.310883 350.938141 190.046875 351.84375 C 187.782867 352.749359 185.066101 353.201172 181.896484 353.201172 Z M 390.609375 353.201172 C 385.175751 353.201172 380.428894 351.957214 376.371094 349.466797 C 372.313293 346.976379 369.162598 343.493347 366.916016 339.017578 C 364.669403 334.541809 363.544922 329.34314 363.544922 323.421875 C 363.544922 317.430969 364.669403 312.188477 366.916016 307.695313 C 369.162598 303.202148 372.313293 299.711121 376.371094 297.220703 C 380.428894 294.730286 385.175751 293.484375 390.609375 293.484375 C 396.07782 293.484375 400.840637 294.730286 404.898438 297.220703 C 408.956238 299.711121 412.108856 303.202148 414.355469 307.695313 C 416.602051 312.188477 417.724609 317.430969 417.724609 323.421875 C 417.724609 329.34314 416.602051 334.541809 414.355469 339.017578 C 412.108856 343.493347 408.956238 346.976379 404.898438 349.466797 C 400.840637 351.957214 396.07782 353.201172 390.609375 353.201172 Z M 54.175781 352.574219 C 48.91634 352.574219 44.866035 351.27655 42.027344 348.681641 C 39.188652 346.086731 37.769531 342.368835 37.769531 337.527344 L 37.769531 303.621094 L 49.210938 303.621094 L 49.210938 336.482422 C 49.210938 338.746429 49.682613 340.400391 50.623047 341.445313 C 51.56348 342.490234 53.165707 343.013672 55.429688 343.013672 C 56.091476 343.013672 56.9095 342.951965 57.884766 342.830078 C 58.860031 342.708191 59.695961 342.59668 60.392578 342.492188 L 62.011719 351.6875 C 60.827469 352.000977 59.557625 352.225891 58.199219 352.365234 C 56.840813 352.504578 55.499355 352.574219 54.175781 352.574219 Z M 49.210938 303.621094 L 49.210938 294.320313 L 60.757813 294.320313 L 60.757813 303.621094 L 49.210938 303.621094 Z M 49.210938 294.320313 L 37.769531 294.320313 L 37.769531 280.162109 L 49.210938 280.162109 L 49.210938 294.320313 Z M 37.769531 294.320313 L 37.769531 303.621094 L 28.992188 303.621094 L 28.992188 294.320313 L 37.769531 294.320313 Z M 215.160156 352 L 215.160156 294.320313 L 226.080078 294.320313 L 226.248047 304.84375 C 226.225845 304.901001 226.203491 304.957947 226.181641 305.015625 C 226.205551 305.019958 226.228668 305.027191 226.251953 305.033203 L 226.248047 304.84375 C 227.04866 302.779022 228.071152 301.003723 229.318359 299.519531 C 231.059906 297.447083 233.097977 295.888672 235.431641 294.84375 C 237.76532 293.798828 240.203445 293.275391 242.746094 293.275391 C 246.960617 293.275391 250.425781 294.573059 253.142578 297.167969 C 255.277435 299.207031 256.840973 301.823975 257.835938 305.013672 C 257.857849 305.01004 257.879974 305.008057 257.902344 305.005859 C 258.659698 303.122253 259.665558 301.439392 260.927734 299.962891 C 262.773773 297.803375 265.010895 296.149414 267.640625 295 C 270.270355 293.850586 273.1185 293.275391 276.183594 293.275391 C 279.597015 293.275391 282.705872 294.023743 285.509766 295.521484 C 288.31366 297.019226 290.534821 299.248352 292.171875 302.208984 C 293.808929 305.169617 294.626953 308.861633 294.626953 313.285156 L 294.626953 352 L 283.236328 352 L 283.236328 314.435547 C 283.236328 310.499664 282.147644 307.659515 279.970703 305.917969 C 277.793793 304.176422 275.208344 303.306641 272.212891 303.306641 C 269.80957 303.306641 267.727722 303.812164 265.96875 304.822266 C 264.209778 305.832367 262.860352 307.233551 261.919922 309.027344 C 260.979492 310.821136 260.509766 312.885071 260.509766 315.21875 L 260.509766 352 L 249.277344 352 L 249.277344 313.652344 C 249.277344 310.517548 248.276199 308.009766 246.273438 306.128906 C 244.27066 304.248047 241.701172 303.306641 238.566406 303.306641 C 236.441727 303.306641 234.465347 303.802246 232.636719 304.794922 C 230.808105 305.787598 229.34523 307.250488 228.248047 309.183594 C 227.150879 311.116699 226.601563 313.511047 226.601563 316.367188 L 226.601563 352 L 215.160156 352 Z M 298.060547 352 L 298.060547 310.320313 L 309.501953 310.320313 L 309.501953 352 L 298.060547 352 Z M 313.535156 352 L 313.535156 294.320313 L 324.507813 294.320313 L 324.544922 304.816406 C 324.012543 305.949341 323.529205 307.169189 323.095703 308.478516 L 324.558594 308.478516 L 324.544922 304.816406 C 326.108521 301.488892 328.099121 298.921112 330.515625 297.115234 C 333.754913 294.694489 337.673828 293.484375 342.271484 293.484375 C 346.207397 293.484375 349.662598 294.320313 352.640625 295.992188 C 355.618683 297.664063 357.945313 300.128082 359.617188 303.384766 C 361.289093 306.641449 362.125 310.673798 362.125 315.480469 L 362.125 352 L 350.734375 352 L 350.734375 316.890625 C 350.734375 312.641235 349.645691 309.341309 347.46875 306.990234 C 345.29184 304.63916 342.306335 303.462891 338.509766 303.462891 C 335.932281 303.462891 333.61557 304.020172 331.560547 305.134766 C 329.505524 306.249359 327.893402 307.88736 326.726563 310.046875 C 325.559753 312.20639 324.976563 314.869446 324.976563 318.039063 L 324.976563 352 L 313.535156 352 Z M 184.404297 344.058594 C 187.573914 344.058594 190.254883 343.449554 192.449219 342.230469 C 194.64357 341.011383 196.31543 339.40918 197.464844 337.423828 C 198.614273 335.438477 199.189453 333.312836 199.189453 331.048828 L 199.189453 323.787109 C 198.80632 324.170227 198.057953 324.518555 196.943359 324.832031 C 195.828781 325.145508 194.556976 325.432129 193.128906 325.693359 C 191.700851 325.95459 190.289734 326.181458 188.896484 326.373047 C 187.50325 326.564636 186.285172 326.729797 185.240234 326.869141 C 183.150391 327.147766 181.207855 327.609528 179.414063 328.253906 C 177.62027 328.898285 176.193207 329.821777 175.130859 331.023438 C 174.068527 332.225098 173.537109 333.819336 173.537109 335.804688 C 173.537109 337.615906 173.998856 339.130524 174.921875 340.349609 C 175.844894 341.568695 177.12468 342.490234 178.761719 343.117188 C 180.398773 343.744141 182.279617 344.058594 184.404297 344.058594 Z M 390.609375 343.535156 C 394.057617 343.535156 396.939606 342.639496 399.255859 340.845703 C 401.572113 339.05191 403.303711 336.631683 404.453125 333.583984 C 405.602539 330.536285 406.177734 327.148804 406.177734 323.421875 C 406.177734 319.625305 405.602539 316.201996 404.453125 313.154297 C 403.303711 310.106598 401.572113 307.678406 399.255859 305.867188 C 396.939606 304.055969 394.057617 303.150391 390.609375 303.150391 C 387.161102 303.150391 384.295105 304.055969 382.013672 305.867188 C 379.732239 307.678406 378.016602 310.106598 376.867188 313.154297 C 375.717773 316.201996 375.144531 319.625305 375.144531 323.421875 C 375.144531 327.148804 375.717773 330.536285 376.867188 333.583984 C 378.016602 336.631683 379.732239 339.05191 382.013672 340.845703 C 384.295105 342.639496 387.161102 343.535156 390.609375 343.535156 Z M 135.072266 341.916016 C 138.311539 341.916016 141.064117 341.14975 143.328125 339.617188 C 145.592133 338.084625 147.31575 335.891296 148.5 333.035156 C 149.68425 330.179016 150.277344 326.765625 150.277344 322.794922 C 150.277344 318.89386 149.68425 315.480469 148.5 312.554688 C 147.31575 309.628906 145.592133 307.338074 143.328125 305.683594 C 141.064117 304.029114 138.311539 303.203125 135.072266 303.203125 C 131.798157 303.203125 129.021652 304.047028 126.740234 305.736328 C 124.458809 307.425629 122.735199 309.74234 121.568359 312.685547 C 120.401527 315.628754 119.816406 318.998352 119.816406 322.794922 C 119.816406 326.695984 120.4095 330.073547 121.59375 332.929688 C 122.778 335.785828 124.501617 337.999023 126.765625 339.566406 C 129.029633 341.133789 131.798157 341.916016 135.072266 341.916016 Z M 69 320 C 69 319.326355 69.00515 318.659607 69.021484 318 L 98 318 L 99 318 C 99 314.482086 98.028488 314.131042 96.896484 311.431641 C 95.764481 308.732239 94.092621 306.632507 91.880859 305.134766 C 89.66909 303.637024 86.96225 302.888672 83.757813 302.888672 C 80.553368 302.888672 77.808762 303.654938 75.527344 305.1875 C 73.245918 306.720062 71.496422 308.758118 70.277344 311.300781 C 69.320229 313.297058 69.081169 315.590149 69.021484 318 L 69 318 L 69 320 Z M 303.806641 305.28125 C 301.821289 305.28125 300.131531 304.610535 298.738281 303.269531 C 297.345032 301.928528 296.648438 300.318359 296.648438 298.4375 C 296.648438 296.52179 297.345032 294.911621 298.738281 293.605469 C 300.131531 292.299316 301.821289 291.644531 303.806641 291.644531 C 305.791992 291.644531 307.48175 292.299316 308.875 293.605469 C 310.26825 294.911621 310.964844 296.52179 310.964844 298.4375 C 310.964844 300.318359 310.26825 301.928528 308.875 303.269531 C 307.48175 304.610535 305.791992 305.28125 303.806641 305.28125 Z M 285.197266 283.152344 C 283.560211 283.152344 282.053528 283.048828 280.677734 282.839844 C 279.30191 282.630859 278.213196 282.419922 277.412109 282.210938 L 279.605469 272.808594 L 281.957031 273.121094 C 283.733398 273.504211 285.335602 273.555969 286.763672 273.277344 C 288.191742 272.998718 289.437653 272.276215 290.5 271.109375 C 291.562317 269.942535 292.424133 268.208984 293.085938 265.910156 L 294.601563 261.105469 L 272.605469 203.320313 L 284.882813 203.320313 L 296.324219 235.869141 C 297.578125 239.352234 298.64093 242.827301 299.511719 246.292969 C 299.82547 247.541702 300.149261 248.788696 300.476563 250.035156 C 300.545868 250.026108 300.615173 250.019135 300.685547 250.013672 C 301.027985 248.766571 301.36908 247.517227 301.707031 246.265625 C 302.647461 242.782532 303.726227 239.317413 304.945313 235.869141 L 316.544922 203.320313 L 328.666016 203.320313 L 303.378906 269.464844 C 302.229462 272.460297 300.810394 274.976074 299.121094 277.013672 C 297.431793 279.05127 295.4375 280.583801 293.138672 281.611328 C 290.839813 282.638855 288.192719 283.152344 285.197266 283.152344 Z M 84.175781 262.201172 C 78.742172 262.201172 73.995285 260.957214 69.9375 258.466797 C 65.879715 255.976395 62.727055 252.493347 60.480469 248.017578 C 58.233883 243.541809 57.111328 238.34314 57.111328 232.421875 C 57.111328 226.430969 58.233883 221.188507 60.480469 216.695313 C 62.727055 212.202118 65.879715 208.711121 69.9375 206.220703 C 73.995285 203.730286 78.742172 202.484375 84.175781 202.484375 C 89.644218 202.484375 94.407059 203.730286 98.464844 206.220703 C 102.522629 208.711121 105.673325 212.202118 107.919922 216.695313 C 110.166512 221.188507 111.291016 226.430969 111.291016 232.421875 C 111.291016 238.34314 110.166512 243.541809 107.919922 248.017578 C 105.673325 252.493347 102.522629 255.976395 98.464844 258.466797 C 94.407059 260.957214 89.644218 262.201172 84.175781 262.201172 Z M 54.175781 261.574219 C 48.916317 261.574219 44.866058 260.27655 42.027344 257.681641 C 39.188629 255.086731 37.769531 251.368835 37.769531 246.527344 L 37.769531 212.621094 L 49.210938 212.621094 L 49.210938 245.482422 C 49.210938 247.746429 49.682613 249.400391 50.623047 250.445313 C 51.56348 251.490234 53.165684 252.013672 55.429688 252.013672 C 56.091476 252.013672 56.9095 251.951981 57.884766 251.830078 C 58.860031 251.708176 59.695961 251.59668 60.392578 251.492188 L 62.011719 260.6875 C 60.827469 261.000977 59.557625 261.225891 58.199219 261.365234 C 56.840813 261.504578 55.499355 261.574219 54.175781 261.574219 Z M 49.210938 212.621094 L 49.210938 203.320313 L 60.757813 203.320313 L 60.757813 212.621094 L 49.210938 212.621094 Z M 49.210938 203.320313 L 37.769531 203.320313 L 37.769531 189.162109 L 49.210938 189.162109 L 49.210938 203.320313 Z M 37.769531 203.320313 L 37.769531 212.621094 L 28.992188 212.621094 L 28.992188 203.320313 L 37.769531 203.320313 Z M 113.160156 261 L 113.160156 203.320313 L 124.080078 203.320313 L 124.248047 213.84375 C 124.225845 213.901001 124.203491 213.957947 124.181641 214.015625 C 124.205551 214.019989 124.228668 214.027191 124.251953 214.033203 L 124.248047 213.84375 C 125.048653 211.779022 126.071152 210.003723 127.318359 208.519531 C 129.059906 206.447083 131.097977 204.888672 133.431641 203.84375 C 135.76532 202.798828 138.203445 202.275391 140.746094 202.275391 C 144.960617 202.275391 148.425781 203.573059 151.142578 206.167969 C 153.277435 208.207031 154.840973 210.823975 155.835938 214.013672 C 155.857849 214.01004 155.879974 214.008057 155.902344 214.005859 C 156.659683 212.122284 157.665573 210.439392 158.927734 208.962891 C 160.773773 206.803375 163.010895 205.149414 165.640625 204 C 168.270355 202.850586 171.118484 202.275391 174.183594 202.275391 C 177.597015 202.275391 180.705872 203.023743 183.509766 204.521484 C 186.31366 206.019226 188.534821 208.248352 190.171875 211.208984 C 191.808929 214.169617 192.626953 217.861633 192.626953 222.285156 L 192.626953 261 L 181.236328 261 L 181.236328 223.435547 C 181.236328 219.499664 180.147644 216.659515 177.970703 214.917969 C 175.793777 213.176422 173.208344 212.306641 170.212891 212.306641 C 167.80957 212.306641 165.727722 212.812164 163.96875 213.822266 C 162.209793 214.832367 160.860367 216.233551 159.919922 218.027344 C 158.979492 219.821136 158.509766 221.885071 158.509766 224.21875 L 158.509766 261 L 147.277344 261 L 147.277344 222.652344 C 147.277344 219.517548 146.276199 217.009766 144.273438 215.128906 C 142.27066 213.248047 139.701172 212.306641 136.566406 212.306641 C 134.441727 212.306641 132.465347 212.802246 130.636719 213.794922 C 128.808105 214.787598 127.34523 216.250488 126.248047 218.183594 C 125.150879 220.116699 124.601563 222.511047 124.601563 225.367188 L 124.601563 261 L 113.160156 261 Z M 196.160156 261 L 196.160156 203.320313 L 207.080078 203.320313 L 207.248047 213.84375 C 207.225845 213.901001 207.203491 213.957947 207.181641 214.015625 C 207.205551 214.019989 207.228668 214.027191 207.251953 214.033203 L 207.248047 213.84375 C 208.04866 211.779022 209.071152 210.003723 210.318359 208.519531 C 212.059906 206.447083 214.097977 204.888672 216.431641 203.84375 C 218.76532 202.798828 221.203445 202.275391 223.746094 202.275391 C 227.960617 202.275391 231.425781 203.573059 234.142578 206.167969 C 236.277435 208.207031 237.840973 210.823975 238.835938 214.013672 C 238.857849 214.01004 238.879974 214.008057 238.902344 214.005859 C 239.659683 212.122284 240.665573 210.439392 241.927734 208.962891 C 243.773773 206.803375 246.010895 205.149414 248.640625 204 C 251.270355 202.850586 254.118484 202.275391 257.183594 202.275391 C 260.597015 202.275391 263.705872 203.023743 266.509766 204.521484 C 269.31366 206.019226 271.534821 208.248352 273.171875 211.208984 C 274.808929 214.169617 275.626953 217.861633 275.626953 222.285156 L 275.626953 261 L 264.236328 261 L 264.236328 223.435547 C 264.236328 219.499664 263.147644 216.659515 260.970703 214.917969 C 258.793793 213.176422 256.208344 212.306641 253.212891 212.306641 C 250.80957 212.306641 248.727722 212.812164 246.96875 213.822266 C 245.209793 214.832367 243.860367 216.233551 242.919922 218.027344 C 241.979492 219.821136 241.509766 221.885071 241.509766 224.21875 L 241.509766 261 L 230.277344 261 L 230.277344 222.652344 C 230.277344 219.517548 229.276199 217.009766 227.273438 215.128906 C 225.27066 213.248047 222.701172 212.306641 219.566406 212.306641 C 217.441727 212.306641 215.465347 212.802246 213.636719 213.794922 C 211.808105 214.787598 210.34523 216.250488 209.248047 218.183594 C 208.150879 220.116699 207.601563 222.511047 207.601563 225.367188 L 207.601563 261 L 196.160156 261 Z M 84.175781 252.535156 C 87.624039 252.535156 90.506004 251.639496 92.822266 249.845703 C 95.138519 248.05191 96.87011 245.631683 98.019531 242.583984 C 99.168945 239.536285 99.744141 236.148773 99.744141 232.421875 C 99.744141 228.625305 99.168945 225.201996 98.019531 222.154297 C 96.87011 219.106598 95.138519 216.678406 92.822266 214.867188 C 90.506004 213.055969 87.624039 212.150391 84.175781 212.150391 C 80.727516 212.150391 77.861496 213.055969 75.580078 214.867188 C 73.298653 216.678406 71.583008 219.106598 70.433594 222.154297 C 69.284172 225.201996 68.710938 228.625305 68.710938 232.421875 C 68.710938 236.148773 69.284172 239.536285 70.433594 242.583984 C 71.583008 245.631683 73.298653 248.05191 75.580078 249.845703 C 77.861496 251.639496 80.727516 252.535156 84.175781 252.535156 Z"/>
</svg>
