<?xml version="1.0" encoding="UTF-8"?>
<!-- Generated by Pixelmator Pro 3.6.4 -->
<svg width="92" height="92" viewBox="0 0 92 92" xmlns="http://www.w3.org/2000/svg">
    <path id="Percorso" fill="#000000" stroke="none" d="M 72.830002 28 L 60 28 L 58.07 21.25 C 56.843952 16.963516 52.928375 14.006439 48.470001 14 L 41.529999 14 C 37.064213 13.99752 33.138092 16.95639 31.91 21.25 L 30 28 L 17.17 28 C 15.060749 27.958221 13.260735 29.51651 13 31.610001 C 12.889612 32.736649 13.261786 33.857307 14.024227 34.694092 C 14.786669 35.530869 15.867971 36.005394 17 36 L 20 36 C 19.998592 36.310707 20.015287 36.621231 20.049999 36.93 L 23.84 69.160004 C 24.428926 74.20269 28.703041 78.003815 33.779999 78 L 56.220001 78 C 61.289749 77.999329 65.556839 74.204926 66.150002 69.169998 L 69.940002 36.940002 C 69.978447 36.628113 69.998482 36.31424 70 36 L 73 36 C 74.132027 36.005394 75.213333 35.530869 75.975777 34.694092 C 76.738213 33.857307 77.11039 32.736649 77 31.610001 C 76.739265 29.51651 74.939247 27.958221 72.830002 28 Z M 39.599998 23.449997 C 39.846226 22.589134 40.634621 21.996819 41.529999 22 L 48.48 22 C 49.371674 22.001289 50.154789 22.592705 50.400002 23.449997 L 51.700001 28 L 38.299999 28 Z M 60.470001 49 L 59.529999 57 L 58.209999 68.230003 C 58.092644 69.243904 57.230648 70.006767 56.209999 70 L 33.779999 70 C 32.759354 70.006767 31.897354 69.243904 31.779999 68.230003 L 30.470001 57 L 29.529999 49 L 28 36 L 62 36 Z"/>
</svg>
